<?xml version="1.0" encoding="UTF-8"?>
<svg width="569px" height="219px" viewBox="0 0 569 219" version="1.1" xmlns="http://www.w3.org/2000/svg" xmlns:xlink="http://www.w3.org/1999/xlink">
    <!-- Generator: Sketch 59 (86127) - https://sketch.com -->
    <title>3</title>
    <desc>Created with Sketch.</desc>
    <g id="3" stroke="none" stroke-width="1" fill="none" fill-rule="evenodd">
        <path d="M284.5,0 C441.625011,0 569,49.0248199 569,109.5 C569,169.97518 441.625011,219 284.5,219 C127.374989,219 0,169.97518 0,109.5 C0,49.0248199 127.374989,0 284.5,0 Z M35.5,102 C31.3578644,102 28,105.357864 28,109.5 C28,113.642136 31.3578644,117 35.5,117 C39.6421356,117 43,113.642136 43,109.5 C43,105.357864 39.6421356,102 35.5,102 Z M548.5,102 C544.357864,102 541,105.357864 541,109.5 C541,113.642136 544.357864,117 548.5,117 C552.642136,117 556,113.642136 556,109.5 C556,105.357864 552.642136,102 548.5,102 Z" id="Combined-Shape" fill="#D8D8D8"></path>
    </g>
</svg>