<?xml version="1.0" encoding="UTF-8"?>
<svg width="569px" height="219px" viewBox="0 0 569 219" version="1.1" xmlns="http://www.w3.org/2000/svg" xmlns:xlink="http://www.w3.org/1999/xlink">
    <!-- Generator: Sketch 59 (86127) - https://sketch.com -->
    <title>4</title>
    <desc>Created with Sketch.</desc>
    <g id="4" stroke="none" stroke-width="1" fill="none" fill-rule="evenodd">
        <path d="M554,0 C562.284271,-1.52179594e-15 569,6.71572875 569,15 L569,204 C569,212.284271 562.284271,219 554,219 L15,219 C6.71572875,219 1.01453063e-15,212.284271 0,204 L0,15 C-1.01453063e-15,6.71572875 6.71572875,1.52179594e-15 15,0 L554,0 Z M28.5,188 C24.3578644,188 21,191.357864 21,195.5 C21,199.642136 24.3578644,203 28.5,203 C32.6421356,203 36,199.642136 36,195.5 C36,191.357864 32.6421356,188 28.5,188 Z M541.5,188 C537.357864,188 534,191.357864 534,195.5 C534,199.642136 537.357864,203 541.5,203 C545.642136,203 549,199.642136 549,195.5 C549,191.357864 545.642136,188 541.5,188 Z M28.5,16 C24.3578644,16 21,19.3578644 21,23.5 C21,27.6421356 24.3578644,31 28.5,31 C32.6421356,31 36,27.6421356 36,23.5 C36,19.3578644 32.6421356,16 28.5,16 Z M541.5,16 C537.357864,16 534,19.3578644 534,23.5 C534,27.6421356 537.357864,31 541.5,31 C545.642136,31 549,27.6421356 549,23.5 C549,19.3578644 545.642136,16 541.5,16 Z" id="Combined-Shape" fill="#D8D8D8"></path>
    </g>
</svg>